<svg xmlns="http://www.w3.org/2000/svg" xmlns:xlink="http://www.w3.org/1999/xlink" width="1246.897" height="785.259" viewBox="0 0 1246.897 785.259">
  <defs>
    <clipPath id="clip-path">
      <rect width="1246.898" height="785.259" fill="none"/>
    </clipPath>
  </defs>
  <g id="Wing_graphic_2017_2_" clip-path="url(#clip-path)">
    <g id="Wing_graphic_2017_2_2" data-name="Wing_graphic_2017_2_">
      <path id="Wing_graphic_2017_3_" d="M264.142,0C369.429,125.144,688.524,154.7,854.767,218.887c108.058,41.561,202.263,106.673,262.757,226.737-75.271-82.2-155.622-126.068-243.362-154.237-59.109-18.933-120.526-30.016-181.944-39.714C533.825,226.275,277.072,202.263,264.142,0ZM695.451,397.136c136.689-11.083,331.563-6,438.235,88.2C1005.771,304.317,754.1,270.607,548.141,259.986,350.958,250.288,73.424,242.438,0,139.46,53.105,495.035,559.685,407.758,695.451,397.136ZM460.863,574.924c130.686-18.471,251.674-75.271,383.745-95.128,103.9-15.7,215.654-13.392,308.473,38.79-135.765-139.46-390.21-108.52-564.765-84.507C441.006,454.4,193.027,464.557,68.344,389.748,135.765,570.306,302.932,597.09,460.863,574.924Zm710.228-37.4c-83.122-43.87-161.164-53.567-241.514-48.026-214.269,14.315-380.512,152.39-610.482,127.453,70.192,87.278,203.648,101.593,300.161,81.274,81.275-17.086,171.323-67.883,253.983-105.287C969.752,548.6,1062.571,519.51,1171.091,537.52Zm17.548,10.159c-64.188-12.468-129.3-2.309-195.8,17.548C869.082,602.17,745.324,718.54,655.275,738.4,740.706,785.5,832.6,766.1,899.56,725,1002.539,661.74,1047.332,562.918,1188.639,547.679Zm-96.052,147.31c35.1-54.953,47.1-105.749,110.829-140.383-69.268.924-126.068,44.331-177.326,90.51-53.105,48.026-92.819,98.361-164.858,121.912C967.443,807.665,1039.02,777.649,1092.587,694.989Zm99.284-80.813c3.233-20.319,8.774-38.79,21.242-54.491-20.319,9.7-37.4,27.245-51.72,47.564-40.175,57.723-50.8,127.453-109.443,175.479,22.628,5.541,54.029,2.309,79.889-12.93,34.634-20.319,46.179-53.105,52.182-90.51C1187.715,658.046,1188.639,636.342,1191.871,614.176Zm30.94-51.258c-23.089,25.4-21.242,78.5-22.166,112.676-.924,28.169-3.233,55.876-18.471,81.736,55.414-4.618,73.424-51.72,60.956-100.208C1234.817,624.335,1217.269,593.858,1222.811,562.918Z" fill="rgba(0,85,129,0.09)"/>
    </g>
  </g>
</svg>
